<svg width="109" height="32" viewBox="0 0 109 32" fill="none" xmlns="http://www.w3.org/2000/svg">
<path d="M53.1549 0.00390625C47.0352 0.00390625 42.0742 4.96483 42.0742 11.0845C42.0742 17.2043 47.0352 22.1652 53.1549 22.1652C59.2746 22.1652 64.2355 17.2043 64.2355 11.0845C64.2355 4.96483 59.2746 0.00390625 53.1549 0.00390625ZM53.1549 17.9321C49.3731 17.9321 46.3073 14.8663 46.3073 11.0845C46.3073 7.30277 49.3731 4.23698 53.1549 4.23698C56.9366 4.23698 60.0024 7.30277 60.0024 11.0845C60.0024 14.8663 56.9366 17.9321 53.1549 17.9321Z" fill="#230871"/>
<path d="M22.1511 10.6921C21.9458 4.75224 17.0697 0 11.0807 0C5.09158 0 1.90735e-05 4.96092 1.90735e-05 11.0806C1.90735e-05 17.2003 4.68439 21.8779 10.5649 22.1477V17.9078C7.02403 17.6449 4.23139 14.6893 4.23139 11.0806C4.23139 7.47192 7.29719 4.23307 11.079 4.23307C14.8607 4.23307 17.7127 7.09018 17.9146 10.6921H22.1494H22.1511Z" fill="#230871"/>
<path d="M37.7352 17.9355C37.7352 17.9355 37.742 17.9355 37.7454 17.9355C37.6758 19.3335 37.7352 20.7604 37.7369 22.1652C31.2541 22.2432 26.6563 16.814 26.6563 10.562V2.40462C26.6563 1.60382 26.6563 0.804711 26.6563 0.00390625C28.0662 0.00390625 29.4777 0.00390625 30.8876 0.00390625C30.8876 3.01032 30.8876 6.01673 30.8876 9.02145C30.8876 11.0048 30.8469 12.8388 31.8785 14.6356C33.1102 16.7784 35.3396 17.759 37.7352 17.9338V17.9355Z" fill="#230871"/>
<path d="M73.5829 13.5723L73.5625 13.5791C73.6219 13.7216 73.6881 13.8624 73.7559 13.9998C73.6915 13.8573 73.6355 13.7148 73.5829 13.5723Z" fill="#230871"/>
<path d="M104.661 0.0237527V0.035629C104.661 3.03356 104.661 6.03318 104.661 9.03111C104.661 9.05826 104.661 9.08541 104.661 9.11255C104.661 9.23131 104.661 9.35178 104.661 9.46884C104.661 9.51635 104.661 9.56385 104.661 9.61305C104.661 9.78611 104.661 9.95917 104.658 10.1305C104.658 10.1305 104.658 10.1305 104.658 10.1322C104.641 11.4149 104.546 12.6398 104.038 13.841C104.018 13.8835 104.001 13.9259 103.981 13.9666C103.882 14.1854 103.77 14.4026 103.643 14.6198C103.351 15.1135 103.003 15.5444 102.611 15.9177C102.045 16.4437 101.39 16.8763 100.671 17.1919C100.608 17.219 100.547 17.2462 100.484 17.2716C100.418 17.2987 100.352 17.3242 100.285 17.3479C100.267 17.3547 100.246 17.3615 100.226 17.37C99.4778 17.6398 98.6702 17.7874 97.827 17.7874C97.2892 17.7874 96.7649 17.7263 96.2627 17.6109C94.7273 17.2088 93.3632 16.4148 92.4165 15.1254C92.2977 14.9625 92.1824 14.7962 92.0772 14.6181C91.9482 14.4009 91.8363 14.1821 91.7395 13.9632C91.7209 13.9242 91.7039 13.8851 91.6853 13.8461C91.1763 12.6415 91.0796 11.4132 91.0626 10.1288C91.0626 10.1288 91.0626 10.1288 91.0626 10.1271C91.0609 9.95238 91.0592 9.77593 91.0592 9.59948C91.0592 9.56725 91.0592 9.53501 91.0592 9.50277C91.0592 9.34159 91.0592 9.18042 91.0592 9.01754C91.0592 6.01961 91.0592 3.01999 91.0592 0.0220561H91.0185V0.00169662C89.5696 0.00169662 88.1223 0.00169662 86.6734 0.00169662C86.6734 0.0203595 86.6734 0.0373257 86.6734 0.0559885C86.6734 3.05392 86.6734 6.05354 86.6734 9.05147C86.6734 9.19569 86.6734 9.3365 86.6734 9.47902C86.6734 9.53671 86.6734 9.59439 86.6734 9.65208C86.6734 9.76575 86.6734 9.87942 86.6717 9.9914C86.6565 11.5947 86.536 13.1098 85.6555 14.5977C85.5469 14.7691 85.4332 14.9354 85.3094 15.0965V15.1118C84.1556 16.6829 82.3793 17.5159 80.4299 17.7993C80.2568 17.8128 80.0804 17.8213 79.9039 17.8213C79.6952 17.8213 79.4882 17.8128 79.283 17.7942C77.1435 17.4769 75.2111 16.4962 74.0896 14.5977C73.204 13.0979 73.0886 11.5727 73.0733 9.95577C73.0733 9.85906 73.0733 9.76066 73.0716 9.66226C73.0716 9.5893 73.0716 9.51635 73.0716 9.4417C73.0716 9.31106 73.0716 9.18211 73.0716 9.04978V9.04638C73.0716 9.02942 73.0716 9.01245 73.0716 8.99548C73.0716 5.99755 73.0716 2.99793 73.0716 0C71.6227 0 70.1755 0 68.7266 0V0.0542919C68.7266 0.851704 68.7266 1.65081 68.7266 2.44992V10.5869C68.7266 16.6778 73.2311 21.9831 79.6409 22.1545C79.6409 22.1562 79.6409 22.1596 79.6409 22.1613C79.719 22.1613 79.7953 22.1579 79.8717 22.1579C79.948 22.1579 80.0244 22.1613 80.1024 22.1613C80.1024 22.1596 80.1024 22.1562 80.1024 22.1545C83.852 22.0544 86.9483 20.1949 88.8723 17.4531C90.7979 20.1847 93.8875 22.0323 97.6268 22.1324C97.6268 22.1341 97.6268 22.1375 97.6268 22.1392C97.7049 22.1392 97.7812 22.1358 97.8576 22.1358C97.9339 22.1358 98.0103 22.1392 98.0883 22.1392C98.0883 22.1375 98.0883 22.1341 98.0883 22.1324C104.5 21.9611 109.003 16.6557 109.003 10.5649V10.5547V2.41938C109.003 1.62027 109.003 0.822861 109.003 0.0237527C107.554 0.0237527 106.107 0.0237527 104.658 0.0237527H104.661Z" fill="#230871"/>
<path d="M16.3213 12.2793H12.1289V16.4716H16.3213V12.2793Z" fill="#00AF9A"/>
<path d="M17.9139 18.091C17.9139 20.0642 17.9546 21.8915 16.9163 23.6797C16.7483 23.9698 16.56 24.2362 16.3564 24.4839C15.2943 25.7801 13.7843 26.5164 12.125 26.8218V31.1262C13.674 30.9938 15.0975 30.5476 16.3564 29.8537C19.921 27.8907 22.1673 23.9596 22.1673 19.6248V17.918H17.9122V18.0927L17.9139 18.091Z" fill="#230871"/>
</svg>
