<svg width="358" height="102" viewBox="0 0 358 102" fill="none" xmlns="http://www.w3.org/2000/svg">
<path d="M174.188 0.0134583C154.134 0.0134583 137.877 16.2704 137.877 36.3246C137.877 56.3789 154.134 72.6358 174.188 72.6358C194.243 72.6358 210.499 56.3789 210.499 36.3246C210.499 16.2704 194.243 0.0134583 174.188 0.0134583ZM174.188 58.7641C161.795 58.7641 151.749 48.7175 151.749 36.3246C151.749 23.9318 161.795 13.8852 174.188 13.8852C186.581 13.8852 196.628 23.9318 196.628 36.3246C196.628 48.7175 186.581 58.7641 174.188 58.7641Z" fill="white"/>
<path d="M72.589 35.038C71.9163 15.5731 55.9374 0 36.3112 0C16.685 0 1.52588e-05 16.2569 1.52588e-05 36.3112C1.52588e-05 56.3655 15.3507 71.6939 34.621 72.5779V58.6839C23.0177 57.8221 13.8662 48.1369 13.8662 36.3112C13.8662 24.4855 23.9128 13.8718 36.3056 13.8718C48.6985 13.8718 58.0445 23.2345 58.7062 35.038H72.5835H72.589Z" fill="white"/>
<path d="M123.658 58.7752C123.658 58.7752 123.68 58.7752 123.691 58.7752C123.463 63.3565 123.658 68.0323 123.664 72.6358C102.42 72.8916 87.3524 55.1002 87.3524 34.6122V7.8806C87.3524 5.25637 87.3524 2.63769 87.3524 0.0134583C91.9727 0.0134583 96.5984 0.0134583 101.219 0.0134583C101.219 9.86546 101.219 19.7175 101.219 29.5639C101.219 36.0633 101.085 42.0735 104.466 47.9614C108.502 54.9834 115.808 58.197 123.658 58.7696V58.7752Z" fill="white"/>
<path d="M241.133 44.4771L241.066 44.4993C241.261 44.9663 241.477 45.4278 241.7 45.8782C241.488 45.4111 241.305 44.9441 241.133 44.4771Z" fill="white"/>
<path d="M342.976 0.0778375V0.116756C342.976 9.94096 342.976 19.7707 342.976 29.5949C342.976 29.6839 342.976 29.7728 342.976 29.8618C342.976 30.251 342.976 30.6457 342.976 31.0294C342.976 31.185 342.976 31.3407 342.976 31.5019C342.976 32.069 342.976 32.6362 342.964 33.1977C342.964 33.1977 342.964 33.1977 342.964 33.2033C342.909 37.4065 342.598 41.4207 340.935 45.357C340.868 45.496 340.813 45.635 340.746 45.7684C340.424 46.4857 340.057 47.1973 339.64 47.909C338.683 49.5269 337.544 50.9391 336.259 52.1622C334.402 53.8858 332.256 55.3035 329.899 56.3377C329.693 56.4266 329.493 56.5156 329.287 56.599C329.07 56.6879 328.854 56.7713 328.637 56.8492C328.576 56.8714 328.509 56.8937 328.442 56.9215C325.99 57.8055 323.344 58.2892 320.581 58.2892C318.818 58.2892 317.1 58.089 315.454 57.7109C310.423 56.3933 305.953 53.7913 302.85 49.5658C302.461 49.0321 302.083 48.4872 301.738 47.9034C301.316 47.1918 300.949 46.4745 300.632 45.7573C300.571 45.6295 300.515 45.5016 300.454 45.3737C298.786 41.4262 298.469 37.4009 298.414 33.1921C298.414 33.1921 298.414 33.1921 298.414 33.1866C298.408 32.6139 298.402 32.0357 298.402 31.4575C298.402 31.3518 298.402 31.2462 298.402 31.1406C298.402 30.6124 298.402 30.0842 298.402 29.5504C298.402 19.7262 298.402 9.89648 298.402 0.0722777H298.269V0.00555982C293.521 0.00555982 288.778 0.00555982 284.03 0.00555982C284.03 0.0667179 284.03 0.122316 284.03 0.183474C284.03 10.0077 284.03 19.8374 284.03 29.6616C284.03 30.1342 284.03 30.5957 284.03 31.0627C284.03 31.2518 284.03 31.4408 284.03 31.6298C284.03 32.0023 284.03 32.3748 284.025 32.7418C283.975 37.9958 283.58 42.9607 280.694 47.8367C280.339 48.3982 279.966 48.9431 279.56 49.4713V49.5213C275.78 54.6697 269.958 57.3996 263.57 58.3281C263.003 58.3726 262.425 58.4004 261.847 58.4004C261.163 58.4004 260.485 58.3726 259.812 58.3114C252.801 57.2717 246.468 54.0581 242.793 47.8367C239.891 42.9218 239.513 37.9235 239.463 32.625C239.463 32.3081 239.463 31.9856 239.457 31.6632C239.457 31.4241 239.457 31.185 239.457 30.9404C239.457 30.5123 239.457 30.0898 239.457 29.6561V29.645C239.457 29.5894 239.457 29.5338 239.457 29.4782C239.457 19.654 239.457 9.8242 239.457 0C234.709 0 229.967 0 225.219 0V0.177914C225.219 2.79103 225.219 5.40971 225.219 8.02838V34.6933C225.219 54.653 239.98 72.0386 260.985 72.6001C260.985 72.6057 260.985 72.6168 260.985 72.6224C261.241 72.6224 261.491 72.6113 261.741 72.6113C261.991 72.6113 262.241 72.6224 262.497 72.6224C262.497 72.6168 262.497 72.6057 262.497 72.6001C274.784 72.2721 284.931 66.1786 291.236 57.1939C297.546 66.1452 307.671 72.1998 319.925 72.5279C319.925 72.5334 319.925 72.5445 319.925 72.5501C320.18 72.5501 320.431 72.539 320.681 72.539C320.931 72.539 321.181 72.5501 321.437 72.5501C321.437 72.5445 321.437 72.5334 321.437 72.5279C342.447 71.9663 357.203 54.5808 357.203 34.621V34.5876V7.92831C357.203 5.30963 357.203 2.69651 357.203 0.0778375C352.455 0.0778375 347.713 0.0778375 342.964 0.0778375H342.976Z" fill="white"/>
<path d="M53.4847 40.2396H39.7464V53.9779H53.4847V40.2396Z" fill="#00AF9A"/>
<path d="M58.7037 59.283C58.7037 65.7491 58.8371 71.737 55.4345 77.597C54.8841 78.5478 54.267 79.4207 53.5998 80.2324C50.1193 84.4801 45.1711 86.8931 39.7336 87.8938V101.999C44.8097 101.565 49.4744 100.103 53.5998 97.8292C65.281 91.3965 72.6422 78.5144 72.6422 64.3091V58.7159H58.6981V59.2885L58.7037 59.283Z" fill="white"/>
</svg>
